<svg xmlns="http://www.w3.org/2000/svg" xmlns:xlink="http://www.w3.org/1999/xlink" width="40" height="40"><defs><path id="a" d="M12.5 13.868a2.637 2.637 0 0 0 2.632-2.642A2.637 2.637 0 0 0 12.5 8.585a2.637 2.637 0 0 0-2.632 2.641 2.637 2.637 0 0 0 2.632 2.642m0 1.981c-2.543 0-4.605-2.07-4.605-4.623 0-2.553 2.062-4.622 4.605-4.622 2.543 0 4.605 2.07 4.605 4.622 0 2.553-2.062 4.623-4.605 4.623m0 12.547c6.579-7.67 9.868-13.273 9.868-16.81 0-5.304-4.418-9.605-9.868-9.605s-9.868 4.3-9.868 9.605c0 3.537 3.29 9.14 9.868 16.81m2.149.707c-.681.842-1.397 1.707-2.149 2.595a149.836 149.836 0 0 1-2.149-2.595c-4.416.197-7.72.988-7.72 1.935 0 1.093 4.419 1.98 9.869 1.98s9.868-.887 9.868-1.98c0-.947-3.303-1.738-7.72-1.935m-5.771-1.858C3.398 20.189.657 14.91.657 11.41.658 5.109 5.96 0 12.5 0s11.842 5.109 11.842 11.41c0 3.501-2.74 8.78-8.219 15.835 5.136.492 8.877 2.004 8.877 3.793C25 33.226 19.403 35 12.5 35S0 33.226 0 31.038c0-1.79 3.74-3.301 8.877-3.793"/></defs><g fill="none" fill-rule="evenodd"><g transform="translate(8 3)"><mask id="b" fill="#fff"><use xlink:href="#a"/></mask><use xlink:href="#a" fill="#000"/><g fill="#000" mask="url(#b)"><g transform="translate(-8 -3)"><path d="M0 0h40v40H0z"/></g></g></g></g></svg>